<svg width="21" height="19" viewBox="0 0 21 19" fill="none" xmlns="http://www.w3.org/2000/svg">
<path d="M20.7444 9.34011L11.0536 0.943168C10.9028 0.815162 10.71 0.74469 10.5104 0.74469C10.3109 0.74469 10.1181 0.815162 9.9673 0.943168L0.276474 9.34011C0.151157 9.44981 0.06286 9.59422 0.023293 9.75418C-0.016274 9.91414 -0.00524107 10.0821 0.0549281 10.2358C0.114527 10.3887 0.220339 10.5202 0.358245 10.6127C0.496151 10.7052 0.659593 10.7544 0.826764 10.7536H2.39902V15.246C2.39902 16.1739 2.7755 17.0638 3.44562 17.7199C4.11575 18.3761 5.02464 18.7447 5.97234 18.7447H12.1399C12.7131 18.7283 13.2574 18.4943 13.6575 18.0921C14.0576 17.6898 14.2823 17.151 14.2839 16.5895V12.6849C14.282 12.1139 14.0495 11.5667 13.6371 11.163C13.2247 10.7592 12.6659 10.5315 12.0827 10.5297H8.86672C8.28418 10.5315 7.72614 10.7594 7.31488 11.1634C6.90363 11.5674 6.6727 12.1145 6.67271 12.6849V15.197C6.67271 15.4104 6.7593 15.6151 6.91342 15.766C7.06755 15.9169 7.2766 16.0017 7.49457 16.0017C7.71254 16.0017 7.92158 15.9169 8.07571 15.766C8.22984 15.6151 8.31643 15.4104 8.31643 15.197V12.6849C8.31828 12.5426 8.37686 12.4066 8.47966 12.3059C8.58246 12.2053 8.72135 12.1479 8.86672 12.1461H12.0827C12.2281 12.1479 12.367 12.2053 12.4698 12.3059C12.5726 12.4066 12.6311 12.5426 12.633 12.6849V16.5895C12.6311 16.7318 12.5726 16.8678 12.4698 16.9685C12.367 17.0691 12.2281 17.1265 12.0827 17.1283H5.9366C5.43857 17.1102 4.96699 16.9042 4.62062 16.5533C4.27426 16.2024 4.07998 15.7339 4.07848 15.246V9.94889C4.07849 9.73482 3.99213 9.52941 3.8382 9.37739C3.68427 9.22536 3.47524 9.13903 3.25662 9.13719H3.02793L10.5104 2.63655L18.0216 9.13719H17.7929C17.6822 9.13438 17.5721 9.15331 17.469 9.19284C17.366 9.23238 17.272 9.29172 17.1928 9.36738C17.1135 9.44303 17.0505 9.53346 17.0075 9.63334C16.9645 9.73321 16.9424 9.84051 16.9424 9.94889V15.246C16.9433 15.5649 16.861 15.8788 16.7035 16.158C16.5459 16.4372 16.3182 16.6724 16.0419 16.8414C15.8524 16.9555 15.7169 17.1387 15.6653 17.3506C15.6137 17.5626 15.6502 17.7859 15.7668 17.9715C15.8834 18.1571 16.0704 18.2897 16.2869 18.3402C16.5034 18.3907 16.7314 18.355 16.921 18.2409C17.4326 17.9262 17.8543 17.4896 18.1467 16.9719C18.4392 16.4543 18.5928 15.8725 18.5933 15.281V10.7536H20.1655C20.3327 10.7544 20.4962 10.7052 20.6341 10.6127C20.772 10.5202 20.8778 10.3887 20.9374 10.2358C21.001 10.0848 21.0166 9.91857 20.9822 9.75878C20.9477 9.59898 20.8649 9.45307 20.7444 9.34011Z" fill="white"/>
</svg>
