<svg width="162" height="56" viewBox="0 0 162 56" fill="none" xmlns="http://www.w3.org/2000/svg">
<path d="M2.05498 39.2H6.04498C7.08098 39.2 7.99565 39.41 8.78898 39.83C9.58232 40.2407 10.1983 40.8193 10.637 41.566C11.0757 42.3033 11.295 43.148 11.295 44.1C11.295 45.052 11.0757 45.9013 10.637 46.648C10.1983 47.3853 9.58232 47.964 8.78898 48.384C7.99565 48.7947 7.08098 49 6.04498 49H2.05498V39.2ZM5.98898 48.104C6.84765 48.104 7.59898 47.936 8.24299 47.6C8.88698 47.2547 9.38632 46.7833 9.74099 46.186C10.0957 45.5793 10.273 44.884 10.273 44.1C10.273 43.316 10.0957 42.6253 9.74099 42.028C9.38632 41.4213 8.88698 40.95 8.24299 40.614C7.59898 40.2687 6.84765 40.096 5.98898 40.096H3.09098V48.104H5.98898ZM14.3634 43.078C14.5967 42.5833 14.9421 42.21 15.3994 41.958C15.8661 41.706 16.4401 41.58 17.1214 41.58V42.546L16.8834 42.532C16.1087 42.532 15.5021 42.77 15.0634 43.246C14.6247 43.722 14.4054 44.3893 14.4054 45.248V49H13.4114V41.636H14.3634V43.078ZM21.8628 49.07C21.1535 49.07 20.5141 48.9113 19.9448 48.594C19.3755 48.2673 18.9275 47.8193 18.6008 47.25C18.2741 46.6807 18.1108 46.0367 18.1108 45.318C18.1108 44.5993 18.2741 43.9553 18.6008 43.386C18.9275 42.8167 19.3755 42.3733 19.9448 42.056C20.5141 41.7387 21.1535 41.58 21.8628 41.58C22.5721 41.58 23.2115 41.7387 23.7808 42.056C24.3501 42.3733 24.7935 42.8167 25.1108 43.386C25.4375 43.9553 25.6008 44.5993 25.6008 45.318C25.6008 46.0367 25.4375 46.6807 25.1108 47.25C24.7935 47.8193 24.3501 48.2673 23.7808 48.594C23.2115 48.9113 22.5721 49.07 21.8628 49.07ZM21.8628 48.188C22.3855 48.188 22.8521 48.0713 23.2628 47.838C23.6828 47.5953 24.0095 47.2547 24.2428 46.816C24.4761 46.3773 24.5928 45.878 24.5928 45.318C24.5928 44.758 24.4761 44.2587 24.2428 43.82C24.0095 43.3813 23.6828 43.0453 23.2628 42.812C22.8521 42.5693 22.3855 42.448 21.8628 42.448C21.3401 42.448 20.8688 42.5693 20.4488 42.812C20.0381 43.0453 19.7115 43.3813 19.4688 43.82C19.2355 44.2587 19.1188 44.758 19.1188 45.318C19.1188 45.878 19.2355 46.3773 19.4688 46.816C19.7115 47.2547 20.0381 47.5953 20.4488 47.838C20.8688 48.0713 21.3401 48.188 21.8628 48.188ZM31.4241 41.58C32.1148 41.58 32.7401 41.7387 33.3001 42.056C33.8601 42.364 34.2988 42.8027 34.6161 43.372C34.9335 43.9413 35.0921 44.59 35.0921 45.318C35.0921 46.0553 34.9335 46.7087 34.6161 47.278C34.2988 47.8473 33.8601 48.2907 33.3001 48.608C32.7495 48.916 32.1241 49.07 31.4241 49.07C30.8268 49.07 30.2855 48.9487 29.8001 48.706C29.3241 48.454 28.9321 48.09 28.6241 47.614V51.716H27.6301V41.636H28.5821V43.092C28.8808 42.6067 29.2728 42.2333 29.7581 41.972C30.2528 41.7107 30.8081 41.58 31.4241 41.58ZM31.3541 48.188C31.8675 48.188 32.3341 48.0713 32.7541 47.838C33.1741 47.5953 33.5008 47.2547 33.7341 46.816C33.9768 46.3773 34.0981 45.878 34.0981 45.318C34.0981 44.758 33.9768 44.2633 33.7341 43.834C33.5008 43.3953 33.1741 43.0547 32.7541 42.812C32.3341 42.5693 31.8675 42.448 31.3541 42.448C30.8315 42.448 30.3601 42.5693 29.9401 42.812C29.5295 43.0547 29.2028 43.3953 28.9601 43.834C28.7268 44.2633 28.6101 44.758 28.6101 45.318C28.6101 45.878 28.7268 46.3773 28.9601 46.816C29.2028 47.2547 29.5295 47.5953 29.9401 47.838C30.3601 48.0713 30.8315 48.188 31.3541 48.188ZM43.7925 49.07C43.0832 49.07 42.4438 48.9113 41.8745 48.594C41.3052 48.2673 40.8572 47.8193 40.5305 47.25C40.2038 46.6807 40.0405 46.0367 40.0405 45.318C40.0405 44.5993 40.2038 43.9553 40.5305 43.386C40.8572 42.8167 41.3052 42.3733 41.8745 42.056C42.4438 41.7387 43.0832 41.58 43.7925 41.58C44.5018 41.58 45.1412 41.7387 45.7105 42.056C46.2798 42.3733 46.7232 42.8167 47.0405 43.386C47.3672 43.9553 47.5305 44.5993 47.5305 45.318C47.5305 46.0367 47.3672 46.6807 47.0405 47.25C46.7232 47.8193 46.2798 48.2673 45.7105 48.594C45.1412 48.9113 44.5018 49.07 43.7925 49.07ZM43.7925 48.188C44.3152 48.188 44.7818 48.0713 45.1925 47.838C45.6125 47.5953 45.9392 47.2547 46.1725 46.816C46.4058 46.3773 46.5225 45.878 46.5225 45.318C46.5225 44.758 46.4058 44.2587 46.1725 43.82C45.9392 43.3813 45.6125 43.0453 45.1925 42.812C44.7818 42.5693 44.3152 42.448 43.7925 42.448C43.2698 42.448 42.7985 42.5693 42.3785 42.812C41.9678 43.0453 41.6412 43.3813 41.3985 43.82C41.1652 44.2587 41.0485 44.758 41.0485 45.318C41.0485 45.878 41.1652 46.3773 41.3985 46.816C41.6412 47.2547 41.9678 47.5953 42.3785 47.838C42.7985 48.0713 43.2698 48.188 43.7925 48.188ZM53.4378 48.552C53.2512 48.72 53.0178 48.8507 52.7378 48.944C52.4672 49.028 52.1825 49.07 51.8838 49.07C51.1932 49.07 50.6612 48.8833 50.2878 48.51C49.9145 48.1367 49.7278 47.6093 49.7278 46.928V42.476H48.4118V41.636H49.7278V40.026H50.7218V41.636H52.9618V42.476H50.7218V46.872C50.7218 47.3107 50.8292 47.6467 51.0438 47.88C51.2678 48.104 51.5852 48.216 51.9958 48.216C52.2012 48.216 52.3972 48.1833 52.5838 48.118C52.7798 48.0527 52.9478 47.9593 53.0878 47.838L53.4378 48.552ZM58.9993 41.58C59.9233 41.58 60.656 41.8507 61.1973 42.392C61.748 42.924 62.0233 43.7033 62.0233 44.73V49H61.0293V44.828C61.0293 44.0627 60.838 43.4793 60.4553 43.078C60.0727 42.6767 59.5267 42.476 58.8173 42.476C58.024 42.476 57.394 42.714 56.9273 43.19C56.47 43.6567 56.2413 44.3053 56.2413 45.136V49H55.2473V38.612H56.2413V42.924C56.512 42.4947 56.8853 42.1633 57.3613 41.93C57.8373 41.6967 58.3833 41.58 58.9993 41.58ZM71.1613 45.626H65.0013C65.0573 46.3913 65.3513 47.012 65.8833 47.488C66.4153 47.9547 67.0873 48.188 67.8993 48.188C68.3566 48.188 68.7766 48.1087 69.1593 47.95C69.5419 47.782 69.8733 47.5393 70.1533 47.222L70.7133 47.866C70.3866 48.258 69.9759 48.5567 69.4813 48.762C68.9959 48.9673 68.4593 49.07 67.8713 49.07C67.1153 49.07 66.4433 48.9113 65.8553 48.594C65.2766 48.2673 64.8239 47.8193 64.4973 47.25C64.1706 46.6807 64.0073 46.0367 64.0073 45.318C64.0073 44.5993 64.1613 43.9553 64.4693 43.386C64.7866 42.8167 65.2159 42.3733 65.7573 42.056C66.3079 41.7387 66.9239 41.58 67.6053 41.58C68.2866 41.58 68.8979 41.7387 69.4393 42.056C69.9806 42.3733 70.4053 42.8167 70.7133 43.386C71.0213 43.946 71.1753 44.59 71.1753 45.318L71.1613 45.626ZM67.6053 42.434C66.8959 42.434 66.2986 42.6627 65.8133 43.12C65.3373 43.568 65.0666 44.156 65.0013 44.884H70.2233C70.1579 44.156 69.8826 43.568 69.3973 43.12C68.9213 42.6627 68.3239 42.434 67.6053 42.434ZM74.1505 43.078C74.3838 42.5833 74.7292 42.21 75.1865 41.958C75.6532 41.706 76.2272 41.58 76.9085 41.58V42.546L76.6705 42.532C75.8958 42.532 75.2892 42.77 74.8505 43.246C74.4118 43.722 74.1925 44.3893 74.1925 45.248V49H73.1985V41.636H74.1505V43.078ZM82.4817 41.636H83.4757V49H82.4817V41.636ZM82.9857 40.026C82.7804 40.026 82.6077 39.956 82.4677 39.816C82.3277 39.676 82.2577 39.508 82.2577 39.312C82.2577 39.1253 82.3277 38.962 82.4677 38.822C82.6077 38.682 82.7804 38.612 82.9857 38.612C83.191 38.612 83.3637 38.682 83.5037 38.822C83.6437 38.9527 83.7137 39.1113 83.7137 39.298C83.7137 39.5033 83.6437 39.676 83.5037 39.816C83.3637 39.956 83.191 40.026 82.9857 40.026ZM95.4255 41.58C96.3495 41.58 97.0728 41.846 97.5955 42.378C98.1275 42.91 98.3935 43.694 98.3935 44.73V49H97.3995V44.828C97.3995 44.0627 97.2128 43.4793 96.8395 43.078C96.4755 42.6767 95.9575 42.476 95.2855 42.476C94.5201 42.476 93.9181 42.714 93.4795 43.19C93.0408 43.6567 92.8215 44.3053 92.8215 45.136V49H91.8275V44.828C91.8275 44.0627 91.6408 43.4793 91.2675 43.078C90.9035 42.6767 90.3808 42.476 89.6995 42.476C88.9435 42.476 88.3415 42.714 87.8935 43.19C87.4548 43.6567 87.2355 44.3053 87.2355 45.136V49H86.2415V41.636H87.1935V42.98C87.4548 42.532 87.8188 42.1867 88.2855 41.944C88.7521 41.7013 89.2888 41.58 89.8955 41.58C90.5115 41.58 91.0435 41.7107 91.4915 41.972C91.9488 42.2333 92.2895 42.6207 92.5135 43.134C92.7841 42.6487 93.1715 42.2707 93.6755 42C94.1888 41.72 94.7721 41.58 95.4255 41.58ZM103.665 41.58C104.626 41.58 105.364 41.8227 105.877 42.308C106.39 42.784 106.647 43.4933 106.647 44.436V49H105.695V47.852C105.471 48.2347 105.14 48.5333 104.701 48.748C104.272 48.9627 103.758 49.07 103.161 49.07C102.34 49.07 101.686 48.874 101.201 48.482C100.716 48.09 100.473 47.572 100.473 46.928C100.473 46.3027 100.697 45.7987 101.145 45.416C101.602 45.0333 102.326 44.842 103.315 44.842H105.653V44.394C105.653 43.7593 105.476 43.2787 105.121 42.952C104.766 42.616 104.248 42.448 103.567 42.448C103.1 42.448 102.652 42.5273 102.223 42.686C101.794 42.8353 101.425 43.0453 101.117 43.316L100.669 42.574C101.042 42.2567 101.49 42.014 102.013 41.846C102.536 41.6687 103.086 41.58 103.665 41.58ZM103.315 48.286C103.875 48.286 104.356 48.16 104.757 47.908C105.158 47.6467 105.457 47.2733 105.653 46.788V45.584H103.343C102.083 45.584 101.453 46.0227 101.453 46.9C101.453 47.3293 101.616 47.67 101.943 47.922C102.27 48.1647 102.727 48.286 103.315 48.286ZM116.192 41.636V48.104C116.192 49.3547 115.884 50.2787 115.268 50.876C114.662 51.4827 113.742 51.786 112.51 51.786C111.829 51.786 111.18 51.6833 110.564 51.478C109.958 51.282 109.463 51.0067 109.08 50.652L109.584 49.896C109.939 50.2133 110.368 50.4607 110.872 50.638C111.386 50.8153 111.922 50.904 112.482 50.904C113.416 50.904 114.102 50.6847 114.54 50.246C114.979 49.8167 115.198 49.1447 115.198 48.23V47.292C114.89 47.7587 114.484 48.1133 113.98 48.356C113.486 48.5987 112.935 48.72 112.328 48.72C111.638 48.72 111.008 48.5707 110.438 48.272C109.878 47.964 109.435 47.5393 109.108 46.998C108.791 46.4473 108.632 45.8267 108.632 45.136C108.632 44.4453 108.791 43.8293 109.108 43.288C109.435 42.7467 109.878 42.3267 110.438 42.028C110.998 41.7293 111.628 41.58 112.328 41.58C112.954 41.58 113.518 41.706 114.022 41.958C114.526 42.21 114.932 42.574 115.24 43.05V41.636H116.192ZM112.426 47.838C112.958 47.838 113.439 47.726 113.868 47.502C114.298 47.2687 114.629 46.9467 114.862 46.536C115.105 46.1253 115.226 45.6587 115.226 45.136C115.226 44.6133 115.105 44.1513 114.862 43.75C114.629 43.3393 114.298 43.022 113.868 42.798C113.448 42.5647 112.968 42.448 112.426 42.448C111.894 42.448 111.414 42.56 110.984 42.784C110.564 43.008 110.233 43.3253 109.99 43.736C109.757 44.1467 109.64 44.6133 109.64 45.136C109.64 45.6587 109.757 46.1253 109.99 46.536C110.233 46.9467 110.564 47.2687 110.984 47.502C111.414 47.726 111.894 47.838 112.426 47.838ZM125.384 45.626H119.224C119.28 46.3913 119.574 47.012 120.106 47.488C120.638 47.9547 121.31 48.188 122.122 48.188C122.579 48.188 122.999 48.1087 123.382 47.95C123.765 47.782 124.096 47.5393 124.376 47.222L124.936 47.866C124.609 48.258 124.199 48.5567 123.704 48.762C123.219 48.9673 122.682 49.07 122.094 49.07C121.338 49.07 120.666 48.9113 120.078 48.594C119.499 48.2673 119.047 47.8193 118.72 47.25C118.393 46.6807 118.23 46.0367 118.23 45.318C118.23 44.5993 118.384 43.9553 118.692 43.386C119.009 42.8167 119.439 42.3733 119.98 42.056C120.531 41.7387 121.147 41.58 121.828 41.58C122.509 41.58 123.121 41.7387 123.662 42.056C124.203 42.3733 124.628 42.8167 124.936 43.386C125.244 43.946 125.398 44.59 125.398 45.318L125.384 45.626ZM121.828 42.434C121.119 42.434 120.521 42.6627 120.036 43.12C119.56 43.568 119.289 44.156 119.224 44.884H124.446C124.381 44.156 124.105 43.568 123.62 43.12C123.144 42.6627 122.547 42.434 121.828 42.434ZM134.837 41.58C135.761 41.58 136.494 41.8507 137.035 42.392C137.586 42.924 137.861 43.7033 137.861 44.73V49H136.867V44.828C136.867 44.0627 136.676 43.4793 136.293 43.078C135.911 42.6767 135.365 42.476 134.655 42.476C133.862 42.476 133.232 42.714 132.765 43.19C132.308 43.6567 132.079 44.3053 132.079 45.136V49H131.085V38.612H132.079V42.924C132.35 42.4947 132.723 42.1633 133.199 41.93C133.675 41.6967 134.221 41.58 134.837 41.58ZM146.999 45.626H140.839C140.895 46.3913 141.189 47.012 141.721 47.488C142.253 47.9547 142.925 48.188 143.737 48.188C144.195 48.188 144.615 48.1087 144.997 47.95C145.38 47.782 145.711 47.5393 145.991 47.222L146.551 47.866C146.225 48.258 145.814 48.5567 145.319 48.762C144.834 48.9673 144.297 49.07 143.709 49.07C142.953 49.07 142.281 48.9113 141.693 48.594C141.115 48.2673 140.662 47.8193 140.335 47.25C140.009 46.6807 139.845 46.0367 139.845 45.318C139.845 44.5993 139.999 43.9553 140.307 43.386C140.625 42.8167 141.054 42.3733 141.595 42.056C142.146 41.7387 142.762 41.58 143.443 41.58C144.125 41.58 144.736 41.7387 145.277 42.056C145.819 42.3733 146.243 42.8167 146.551 43.386C146.859 43.946 147.013 44.59 147.013 45.318L146.999 45.626ZM143.443 42.434C142.734 42.434 142.137 42.6627 141.651 43.12C141.175 43.568 140.905 44.156 140.839 44.884H146.061C145.996 44.156 145.721 43.568 145.235 43.12C144.759 42.6627 144.162 42.434 143.443 42.434ZM149.988 43.078C150.222 42.5833 150.567 42.21 151.024 41.958C151.491 41.706 152.065 41.58 152.746 41.58V42.546L152.508 42.532C151.734 42.532 151.127 42.77 150.688 43.246C150.25 43.722 150.03 44.3893 150.03 45.248V49H149.036V41.636H149.988V43.078ZM160.89 45.626H154.73C154.786 46.3913 155.08 47.012 155.612 47.488C156.144 47.9547 156.816 48.188 157.628 48.188C158.085 48.188 158.505 48.1087 158.888 47.95C159.27 47.782 159.602 47.5393 159.882 47.222L160.442 47.866C160.115 48.258 159.704 48.5567 159.21 48.762C158.724 48.9673 158.188 49.07 157.6 49.07C156.844 49.07 156.172 48.9113 155.584 48.594C155.005 48.2673 154.552 47.8193 154.226 47.25C153.899 46.6807 153.736 46.0367 153.736 45.318C153.736 44.5993 153.89 43.9553 154.198 43.386C154.515 42.8167 154.944 42.3733 155.486 42.056C156.036 41.7387 156.652 41.58 157.334 41.58C158.015 41.58 158.626 41.7387 159.168 42.056C159.709 42.3733 160.134 42.8167 160.442 43.386C160.75 43.946 160.904 44.59 160.904 45.318L160.89 45.626ZM157.334 42.434C156.624 42.434 156.027 42.6627 155.542 43.12C155.066 43.568 154.795 44.156 154.73 44.884H159.952C159.886 44.156 159.611 43.568 159.126 43.12C158.65 42.6627 158.052 42.434 157.334 42.434Z" fill="white"/>
<g clip-path="url(#clip0_3_405)">
<path d="M87 15V18H75V15H73V18C73 19.1 73.9 20 75 20H87C88.1 20 89 19.1 89 18V15H87ZM86 11L84.59 9.59L82 12.17V4H80V12.17L77.41 9.59L76 11L81 16L86 11Z" fill="white"/>
</g>
<defs>
<clipPath id="clip0_3_405">
<rect width="24" height="24" fill="white" transform="translate(69)"/>
</clipPath>
</defs>
</svg>
